# File created by Blade
# Date/Time:  Tue Jan 27 20:02:37 2015
# Frame Rate: 120.000 fps
#------------------------------------------------------
:FULLY-SPECIFIED
:DEGREES
3826
root 6.353401 34.217768 3.419051 32.137400 -22.922248 -34.080688
Spine 4.348920 22.309919 3.194802
Head -21.065641 4.685857 15.353914
LeftShoulder -13.727310 -3.365278 32.528019
LeftArm -7.374859 -31.764505 -73.408629
LeftForeArm -48.270462 -0.000000 135.214654
LeftHand 7.084018 -0.000000 -42.162201
LeftHandThumb1 -26.253704 0.000000 33.147579
RightShoulder -10.762922 -2.839744 -19.543780
RightArm 33.591334 -53.452871 77.387915
RightForeArm -19.578965 -0.000000 14.781444
RightHand 16.412721 -0.000000 11.993062
RightHandThumb1 -24.326973 -0.000000 -32.862282
LeftUpLeg -9.006552 24.449224 17.467202
LeftLeg -8.529061 -0.000000 0.000000
LeftFoot -17.887359 25.575738 -15.918118
LeftToeBase 19.007562 -0.000000 -0.000000
RightUpLeg 16.563254 -54.417757 -37.407653
RightLeg 109.232773 -0.000000 -0.000000
RightFoot 31.924824 -25.749619 29.940853
RightToeBase 13.224444 -0.000000 -0.000000
3827
root 6.375465 34.215324 3.425238 32.137658 -22.345998 -33.855309
Spine 4.217847 21.758126 3.453190
Head -21.112758 4.573398 15.532141
LeftShoulder -13.624298 -3.335374 32.509819
LeftArm -7.195315 -31.475523 -73.683500
LeftForeArm -48.118453 0.000000 135.058822
LeftHand 7.082824 -0.000000 -42.283506
LeftHandThumb1 -26.253704 0.000000 33.147579
RightShoulder -10.948848 -2.974539 -19.439944
RightArm 33.591383 -53.286996 77.325054
RightForeArm -19.783259 -0.000000 14.758775
RightHand 16.412623 -0.000000 12.024145
RightHandThumb1 -24.326973 -0.000000 -32.862282
LeftUpLeg -9.446341 24.246512 17.304123
LeftLeg -8.543711 -0.000000 0.000000
LeftFoot -17.679713 25.311505 -15.703477
LeftToeBase 19.072870 -0.000000 -0.000000
RightUpLeg 16.293414 -52.535842 -36.981857
RightLeg 109.692631 -0.000000 -0.000000
RightFoot 31.044039 -26.344976 31.116621
RightToeBase 16.163462 -0.000000 -0.000000
3828
root 6.405064 34.212842 3.427877 32.096708 -21.683417 -33.593210
Spine 4.179679 21.105386 3.794886
Head -21.287156 4.467455 15.623275
LeftShoulder -13.546674 -3.452480 32.488364
LeftArm -7.185960 -31.202325 -73.904711
LeftForeArm -47.928025 -0.000000 134.898283
LeftHand 7.132560 -0.000000 -42.252797
LeftHandThumb1 -26.253704 0.000000 33.147579
RightShoulder -11.165080 -3.022541 -19.396482
RightArm 33.607347 -53.190854 77.220469
RightForeArm -19.828419 -0.000000 14.712596
RightHand 16.418184 -0.000000 12.048458
RightHandThumb1 -24.326973 -0.000000 -32.862282
LeftUpLeg -9.915003 23.863069 17.168665
LeftLeg -8.509325 -0.000000 0.000000
LeftFoot -17.536873 25.048409 -15.601164
LeftToeBase 19.068291 -0.000000 -0.000000
RightUpLeg 16.233079 -50.734619 -36.723753
RightLeg 110.158342 -0.000000 -0.000000
RightFoot 30.758701 -26.549450 31.248596
RightToeBase 16.648202 -0.000000 -0.000000
3829
root 6.425658 34.210724 3.435273 32.063586 -20.987361 -33.372975
Spine 4.102849 20.462936 4.162723
Head -21.434628 4.363338 15.755266
LeftShoulder -13.441284 -3.623936 32.516393
LeftArm -7.275431 -30.910878 -74.085111
LeftForeArm -47.803026 -0.000000 134.757044
LeftHand 7.133272 -0.000000 -42.311496
LeftHandThumb1 -26.253704 0.000000 33.147579
RightShoulder -11.402478 -3.145674 -19.302724
RightArm 33.663567 -53.062909 77.079620
RightForeArm -19.907527 -0.000000 14.675577
RightHand 16.390913 0.000000 12.191590
RightHandThumb1 -24.326973 -0.000000 -32.862282
LeftUpLeg -10.372633 23.647239 17.048894
LeftLeg -8.504737 -0.000000 0.000000
LeftFoot -17.328319 24.668163 -15.390159
LeftToeBase 19.161644 -0.000000 -0.000000
RightUpLeg 16.311762 -48.964083 -36.516618
RightLeg 110.528165 -0.000000 -0.000000
RightFoot 30.749483 -26.748007 30.983108
RightToeBase 16.767490 -0.000000 -0.000000
